PathFileType	4	(X/Y/Z)	C:/Users/beibeiliu/ov580/test_trc/capture2\sequence.2_training_dense_left.trc
DataRate	CameraRate	NumFrames	NumMarkers	Units	OrigDataRate	OrigDataStartFrame	OrigNumFrames
120	120	21	19	mm	120	40	313
Frame#	Time	ThumbCMC			ThumbMCP			ThumbIP			ThumbTip			IndexMCP			IndexPIP			IndexTip			MiddleMCP			MiddlePIP			MiddleTip			RingMCP			RingPIP			RingTip			PinkyMCP			PinkyPIP			PinkyTip			BackHand1			BackHand2			BackHand3	
		X0	Y0	Z0	X1	Y1	Z1	X2	Y2	Z2	X3	Y3	Z3	X4	Y4	Z4	X5	Y5	Z5	X6	Y6	Z6	X7	Y7	Z7	X8	Y8	Z8	X9	Y9	Z9	X10	Y10	Z10	X11	Y11	Z11	X12	Y12	Z12	X13	Y13	Z13	X14	Y14	Z14	X15	Y15	Z15	X16	Y16	Z16	X17	Y17	Z17	X18	Y18	Z18	
39	0.325	-159.219	25.3436	-23.0515	-130.96	32.3827	-36.6799	-110.393	34.2266	-61.1356	-95.9345	22.051	-81.3223	-151.114	4.35493	-96.3167	-127.589	6.77498	-109.155	-98.9615	13.7102	-89.1203	-142.287	-16.1065	-95.3569	-110.674	-9.59869	-98.7347	-93.1341	-0.8702	-72.7573	-137.1	-29.0505	-85.4863	-105.419	-22.8053	-87.1134	-90.2267	-7.20272	-60.1844	-131.945	-46.2183	-72.9938	-105.27	-37.1024	-76.4889	-91.409	-15.0194	-57.713	-176.153	-30.6502	-41.947	-182.68	-29.5065	-13.8224	-185.76	2.29962	-33.0052	
40	0.333333	-156.521	29.6103	-23.578	-128.691	31.84	-39.2388	-110.321	33.3607	-60.6311	-96.0667	21.0778	-79.9599	-151.458	2.43764	-96.0093	-125.175	6.16922	-107.633	-99.1192	7.47355	-89.6694	-143.327	-16.5478	-94.2205	-112.714	-12.5415	-99.8175	-93.3711	1.50006	-72.6703	-137.015	-33.9335	-84.7567	-106.8	-26.2974	-88.1634	-92.1564	-7.87922	-60.9285	-136.515	-46.6548	-70.8623	-106.732	-41.5393	-75.1653	-91.4795	-18.066	-60.3012	-174.988	-35.501	-43.7305	-184.321	-29.125	-13.2274	-186.01	-1.22965	-33.1472	
41	0.341667	-155.948	27.2306	-22.1158	-127.551	27.425	-34.4502	-106.322	28.8412	-60.7608	-96.7736	12.868	-78.6399	-152.341	3.62379	-92.6422	-127.032	2.73106	-107.979	-99.1775	2.19477	-90.5324	-143.012	-19.3562	-94.2191	-111.901	-15.5321	-99.1875	-91.3566	-8.4273	-69.8686	-138.697	-37.9879	-83.6367	-108.675	-28.9055	-87.5126	-93.0073	-12.7092	-62.6963	-135.576	-53.3401	-70.7953	-107.398	-44.0853	-74.1903	-90.3828	-22.7528	-54.6431	-176.627	-34.262	-41.9373	-184.854	-27.4119	-13.2332	-185.214	0.553695	-31.0724	
42	0.35	-152.718	21.0545	-22.3041	-124.064	26.9068	-35.2254	-106.945	18.9811	-58.8931	-96.6558	6.30208	-74.2277	-152.172	2.8031	-91.6841	-122.186	-0.935488	-105.682	-94.7106	0.184984	-86.93	-141.669	-21.7985	-93.3297	-110.719	-22.0208	-96.5518	-90.3322	-9.07041	-67.2721	-139.197	-40.8883	-81.6323	-106.122	-37.7233	-83.1836	-91.8648	-20.0059	-60.4018	-137.252	-56.7547	-68.8859	-108.892	-48.7521	-73.4153	-91.7053	-28.9712	-56.927	-178.425	-35.1541	-38.4331	-185.294	-30.543	-10.2628	-183.871	-2.36142	-29.4849	
43	0.358333	-152.527	19.4743	-19.7001	-124.793	19.2874	-34.7668	-106.87	17.58	-54.0741	-94.0739	0.252741	-75.1784	-149.246	-6.70415	-90.7122	-124.03	-4.97714	-105.966	-95.3964	-7.60798	-90.0976	-143.963	-27.1073	-88.5246	-109.335	-23.6498	-95.6235	-90.881	-17.8616	-67.6961	-137.769	-43.6948	-82.7171	-109.285	-42.5431	-84.4107	-90.4681	-28.626	-57.4788	-138.059	-57.6904	-69.4224	-110.16	-54.8943	-71.7772	-92.0901	-37.0247	-56.7971	-178.279	-37.1051	-40.3048	-186.528	-36.1829	-8.77364	-183.532	-3.2768	-28.1887	
44	0.366667	-154.03	12.9977	-16.9063	-122.915	18.8453	-33.6221	-104.266	14.8384	-58.5022	-97.3494	-4.6635	-72.4876	-148.891	-7.65366	-88.2393	-123.415	-12.1787	-103.824	-93.1171	-13.6919	-86.2261	-145.026	-28.0296	-87.1295	-113.377	-31.9517	-94.7038	-90.253	-21.8077	-66.5159	-137.784	-49.449	-81.2465	-109.892	-48.0353	-82.9867	-90.9907	-33.9592	-55.7862	-141.557	-62.4996	-63.7951	-108.838	-58.9644	-68.0687	-93.5441	-36.8448	-52.4192	-178.596	-40.4121	-36.5891	-186.933	-33.2815	-9.53149	-183.793	-5.42994	-31.5581	
45	0.375	-152.043	11.2554	-18.6193	-122.156	13.1256	-35.1545	-106.05	8.03316	-52.7777	-95.7063	-5.78935	-69.4292	-147.268	-11.5098	-88.6846	-119.142	-15.0172	-101.951	-92.0541	-16.9421	-85.7774	-141.979	-33.0225	-88.828	-108.907	-37.7907	-90.8362	-89.5942	-28.2956	-65.6157	-140.271	-49.6614	-79.7894	-110.491	-51.4966	-81.5713	-91.2194	-36.4316	-53.1406	-138.187	-67.8969	-65.4409	-109.758	-65.5331	-65.3649	-93.2079	-45.5466	-50.9777	-179.244	-47.0123	-34.9219	-189.622	-36.036	-7.55565	-183.156	-9.59721	-28.6385	
46	0.383333	-151.276	8.4446	-20.8706	-120.772	10.3776	-32.9577	-104.797	3.43596	-52.7677	-96.4827	-17.8315	-69.5203	-147.282	-15.6715	-87.4255	-121.142	-22.5133	-101.59	-92.4925	-26.684	-83.4705	-142.394	-36.0826	-88.875	-107.838	-40.093	-91.3447	-90.0115	-34.7664	-63.8733	-140.896	-59.9908	-76.6269	-109.346	-56.033	-80.2137	-91.2371	-46.0081	-53.0855	-138.697	-73.1026	-64.7355	-113.675	-70.424	-66.6069	-96.0681	-52.011	-48.3081	-179.638	-46.9351	-37.4887	-188.89	-41.0969	-6.6885	-182.236	-12.2503	-29.193	
47	0.391667	-148.689	5.12826	-18.1363	-121.03	0.66013	-32.1459	-100.463	-1.5765	-54.8704	-92.2957	-20.6952	-69.7345	-144.506	-20.9558	-89.3488	-120.389	-25.6961	-100.723	-90.5528	-29.7221	-84.2105	-144.274	-42.0987	-85.507	-110.58	-49.8683	-90.6796	-89.4963	-40.637	-62.6006	-138.412	-63.5626	-78.118	-110.168	-62.1429	-78.1363	-90.9958	-51.5942	-50.8631	-142.85	-75.4787	-61.8717	-112.87	-75.692	-63.1033	-96.6018	-55.8793	-44.7383	-179.57	-50.4112	-33.4339	-189.947	-41.6997	-10.5147	-182.458	-14.7557	-29.3549	
48	0.4	-148.898	0.045362	-14.4527	-119.843	-3.81115	-29.6056	-99.2077	-6.46471	-52.6393	-95.7247	-30.9587	-66.8126	-144.954	-24.8023	-87.0265	-118.421	-34.5395	-99.4767	-91.1424	-39.123	-82.4764	-144.108	-48.3465	-84.2939	-109.968	-52.1817	-90.1655	-89.7816	-45.6454	-60.5613	-142.369	-63.9608	-75.0064	-109.504	-71.7676	-75.1161	-92.8637	-54.4953	-49.9881	-142.513	-83.2915	-62.4904	-113.049	-79.9309	-62.3516	-97.5207	-65.1518	-45.6529	-182.145	-54.6317	-33.2416	-189.24	-46.5147	-9.94251	-182.33	-21.5139	-26.5453	
49	0.408333	-144.463	-2.96846	-16.9732	-118.894	-9.3077	-28.6629	-100.09	-15.0864	-49.5644	-93.3254	-36.6885	-66.7394	-142.601	-30.8318	-87.3518	-115.086	-38.954	-97.7291	-90.9611	-43.9337	-81.0486	-142.894	-52.0992	-85.2568	-111.674	-60.8337	-87.9627	-91.0837	-58.1302	-55.4572	-142.995	-72.0967	-75.5975	-110.539	-75.5123	-74.6991	-93.0753	-67.0763	-48.6013	-148.894	-83.2513	-58.4729	-118.493	-86.1479	-62.8391	-96.3211	-72.5291	-41.2815	-182.762	-56.7941	-36.1425	-188.968	-46.4262	-7.78969	-180.108	-22.8573	-27.4964	
50	0.416667	-144.734	-9.16403	-11.1553	-116.013	-15.3186	-28.5337	-99.019	-23.4549	-47.047	-90.1828	-42.3678	-65.7248	-143.129	-32.934	-82.4044	-116.724	-49.087	-96.8776	-91.633	-52.1815	-81.2512	-142.969	-58.3389	-82.7526	-111.724	-68.6399	-86.5322	-92.7575	-67.4376	-57.2957	-145.485	-76.0108	-73.3232	-111.745	-85.2021	-71.9816	-94.7144	-73.0263	-44.9712	-147.236	-92.3257	-59.3239	-119.875	-97.7786	-59.5298	-99.4799	-80.7359	-43.614	-183.545	-60.1041	-32.8202	-192.064	-53.0035	-7.7402	-179.932	-27.4045	-27.0688	
51	0.425	-142.731	-15.2028	-10.3304	-112.463	-20.4456	-25.6595	-98.066	-32.7764	-45.6203	-90.7618	-53.9667	-65.7398	-142.955	-42.0734	-83.5658	-117.461	-54.5629	-96.3247	-91.4738	-62.4763	-76.7124	-143.705	-63.9326	-81.9416	-114.651	-73.4121	-88.2586	-93.3237	-73.5621	-51.977	-145.275	-80.3457	-73.8148	-113.869	-89.0599	-73.0754	-97.6071	-84.1187	-46.3732	-152.142	-99.5822	-56.5886	-119.882	-101.578	-58.5085	-103.836	-84.6973	-41.5401	-182.568	-63.46	-34.0008	-191.9	-58.2699	-5.54465	-178.693	-29.5235	-27.8189	
52	0.433333	-144.989	-24.1916	-13.398	-116.62	-28.9452	-24.5497	-96.3819	-39.8724	-51.2275	-92.9885	-60.92	-64.4573	-145.428	-50.2631	-81.6211	-120.621	-63.4562	-95.4339	-94.5182	-70.7534	-75.4149	-143.65	-73.1906	-84.1956	-115.192	-80.6539	-87.1463	-95.0211	-76.0886	-55.1081	-149.105	-90.3879	-70.4236	-117.011	-96.1193	-72.6998	-99.0389	-89.047	-44.7415	-152.701	-104.846	-56.5412	-121.772	-107.155	-57.3976	-102.323	-91.7344	-35.9797	-182.409	-68.9317	-34.2398	-195.376	-62.1698	-3.58081	-178.569	-35.0871	-29.4103	
53	0.441667	-145.337	-25.7184	-11.0561	-116.05	-33.8128	-29.774	-98.1906	-44.232	-50.5055	-95.9853	-64.5381	-63.0217	-147.733	-53.8817	-81.0796	-121.742	-67.6906	-95.407	-97.2473	-74.0378	-79.9101	-144.359	-72.9628	-84.4493	-114.397	-85.8756	-84.6382	-98.1902	-82.4311	-53.0864	-148.438	-89.8887	-73.4757	-120.602	-101.456	-72.2072	-101.137	-92.4403	-48.6706	-155.425	-105.068	-57.6748	-125.204	-109.644	-59.5301	-105.745	-96.5829	-39.6878	-188.813	-73.7076	-30.5625	-195.883	-64.205	-5.58571	-179.739	-37.6243	-29.5204	
54	0.45	-146.304	-28.3073	-16.2333	-119.982	-36.668	-28.1948	-101.816	-46.3912	-50.4489	-98.7204	-66.3087	-64.2542	-150.207	-56.8152	-82.2426	-122.635	-71.8903	-96.2828	-99.8938	-77.6513	-80.6977	-150.04	-78.516	-82.6453	-117.189	-87.3167	-84.2506	-99.9505	-82.9149	-53.4573	-153.241	-95.5971	-71.4611	-121.205	-105.397	-70.6565	-104.833	-93.7317	-47.7266	-156.155	-108.19	-59.328	-127.998	-112.422	-59.4293	-110.92	-96.8716	-39.4368	-190.121	-75.2135	-33.0332	-196.62	-67.2225	-3.46068	-180.539	-39.7347	-27.6369	
55	0.458333	-149.731	-29.5218	-15.8293	-120.787	-36.568	-32.2462	-107.295	-47.9865	-51.205	-98.4873	-65.1186	-70.0546	-154.642	-55.9559	-81.7576	-129.188	-71.022	-96.8639	-102.851	-77.6425	-81.5579	-152.391	-74.6079	-84.5727	-120.136	-85.4593	-87.8517	-103.926	-85.7477	-57.9832	-156.977	-90.2369	-73.2566	-122.437	-102.648	-72.6481	-107.684	-92.6207	-48.5644	-160.749	-107.733	-59.8854	-132.734	-110.963	-62.5549	-113.007	-96.0553	-36.5016	-190.413	-71.2324	-33.6027	-198.052	-62.5729	-7.99746	-186.288	-38.2201	-26.845	
56	0.466667	-151.791	-24.9999	-19.7693	-123.701	-32.256	-34.6038	-108.06	-41.5635	-55.892	-101.878	-58.7216	-72.2018	-157.102	-51.687	-86.7045	-133.197	-64.9315	-100.852	-106.947	-71.8845	-87.9069	-155.159	-72.6184	-87.9674	-123.935	-84.4077	-88.3968	-106.981	-80.9346	-56.938	-159.631	-87.9956	-74.4755	-125.88	-98.6769	-74.2904	-110.589	-85.05	-49.4027	-164.898	-100.693	-59.7312	-136.475	-107.587	-65.4999	-115.501	-94.2295	-40.8992	-194.28	-73.0497	-38.2346	-203.397	-61.9588	-6.48306	-185.748	-35.6179	-31.5789	
57	0.475	-155.891	-21.2143	-17.1153	-129.57	-28.8741	-34.0504	-115.046	-40.961	-57.9077	-109.168	-55.8012	-73.5152	-158.716	-47.4378	-89.642	-136.741	-62.3841	-101.743	-109.005	-66.6658	-88.1655	-159.236	-68.6603	-89.0749	-130.946	-79.0867	-93.32	-109.326	-73.6017	-59.6842	-158.858	-84.1239	-79.8302	-128.734	-91.1279	-79.3517	-113.282	-81.8049	-54.8608	-166.404	-97.7437	-62.4242	-135.03	-104.009	-66.0558	-115.52	-91.1341	-45.4772	-194.996	-68.2843	-35.7893	-203.155	-54.5364	-10.056	-190.784	-32.2538	-30.307	
58	0.483333	-156.512	-12.0138	-18.1781	-131.633	-23.2806	-35.8955	-116.883	-29.8247	-56.9186	-111.152	-47.732	-77.6341	-163.285	-39.7131	-88.0746	-141.177	-53.8736	-104.044	-109.463	-59.8438	-89.2104	-162.53	-60.8262	-88.2749	-128.637	-70.348	-92.8381	-110.081	-64.2945	-62.8936	-163.715	-77.1865	-79.2327	-130.928	-84.8714	-81.0386	-114.376	-74.9624	-58.4648	-167.385	-92.0493	-65.1444	-138.68	-95.105	-70.7467	-117.13	-81.2932	-48.0307	-195.417	-59.1533	-40.6055	-204.557	-52.1234	-9.09454	-193.245	-27.9386	-32.5516	
59	0.491667	-157.924	-3.46996	-19.0326	-132.458	-13.8349	-38.072	-118.408	-21.4461	-59.807	-113.74	-39.8214	-79.0082	-162.824	-30.1113	-94.5223	-137.697	-40.5687	-108.521	-114.277	-49.3273	-95.1166	-161.875	-53.0545	-93.3517	-132.45	-59.3404	-98.7622	-112.428	-57.7458	-67.3135	-162.32	-69.2821	-84.2553	-130.776	-72.762	-85.3821	-112.67	-64.4743	-57.9201	-167.674	-82.6201	-65.676	-135.059	-86.0188	-71.7144	-119.208	-72.9337	-53.6979	-198.549	-55.6213	-37.473	-206.375	-47.075	-11.7733	-193.79	-16.9359	-34.5475	
